<?xml version="1.0" encoding="utf-8"?>
<!-- Generator: Adobe Illustrator 22.1.0, SVG Export Plug-In . SVG Version: 6.00 Build 0)  -->
<svg version="1.1" id="Layer_1" xmlns="http://www.w3.org/2000/svg" xmlns:xlink="http://www.w3.org/1999/xlink" x="0px" y="0px"
	 viewBox="0 0 667 666" style="enable-background:new 0 0 667 666;" xml:space="preserve">
<style type="text/css">
	.st0{fill:none;stroke:#000000;stroke-width:2;stroke-linecap:round;stroke-linejoin:round;stroke-miterlimit:10;}
</style>
<g>
	<path class="st0" d="M526.5,358.5c2.5-0.5,4.9-1,7.8-1.5c0,2.4,0,4.2,0,6c-1.1,0.4-1.9,0.6-3.8,1.2c1.7,1.4,2.7,2.9,4,3.2
		c7,1.5,14,2.7,21,4.1c10,2,20,4.1,30,6c11.3,2.1,22.7,4,34,6c3.1,0.5,6.3,0.9,9.3,1.3c7.2-12,14.3-23.6,21.1-35.4
		c2.2-3.8,3.7-7.8,3.7-12.5c0-6.3,0.8-12.6,1.3-19.4c-3.7-0.7-7.1-1.5-10.4-2.1c-15.5-2.7-31-5.4-46.5-8c-12.5-2.1-25-3.8-37.5-6.1
		c-13.5-2.4-27-5.5-40.5-7.9c-14.1-2.5-28.4-4.6-42.5-7.1c-13.9-2.5-27.7-5.4-41.5-7.9c-13.8-2.5-27.7-4.6-41.5-7.1
		c-13.5-2.5-27-5.4-40.5-7.9c-13.8-2.5-27.7-4.6-41.5-7.1c-13.5-2.5-27-5.4-40.5-7.9c-14.5-2.8-29-5.4-43.5-8c-1.6-0.3-3.3,0-5.3,0
		c-7.8,7.2-15.7,14.6-23.7,22"/>
	<path class="st0" d="M200.5,354.5c-0.1-0.7-0.1-1.4-0.2-2c-0.4-0.2-0.7-0.5-1.1-0.7c-5.3,5.2-10.5,10.5-16,16
		c-29.7-15.6-58.7-33-91.4-46c-2.4-3.5-5.5-8.1-8.3-12.2c11-17.4,25.5-29.3,43.1-36.9c10.2-4.4,21-7.7,32.4-7.2
		c3.8,0.2,7.7-0.1,11.5,0.1c2.4,0.1,5,0.4,6.9,1.6c3.1,1.9,5.7,4.6,9.1,7.4c-2.7,6.8-0.2,14.6,0,22.5c0.1,5.2,4.7,4.8,7.5,5.3
		c19.1,4,38.3,7.4,57.5,11.2c15.7,3.1,31.3,6.8,47,9.9c12.6,2.5,25.3,4.6,38,7.1c8,1.5,16,3.6,24,4.8c3.3,0.5,7.4,1.5,10-2.3
		c0.4-0.5,1.6-0.5,2.9-0.8c-0.4,1.6-0.8,2.9-1.3,5.1c5.6,1.1,11,2.1,16.4,3.2c9.7,2,19.3,4.2,29,5.9c3.3,0.6,7.3,1.2,9.7-4.4
		c1.3,2.7,2,4.2,3,6.2c13.2,2.7,27.2,5.6,41.2,8.3c11.3,2.2,22.7,4,34,6.1c4.7,0.9,9.3,2.3,14,2.8c2.8,0.3,6.2,1.4,8.6-1.8
		c0.5-0.7,2.2-0.4,3.4-0.6"/>
	<path class="st0" d="M78.5,307.5c-9.1-14.7-23.6-19.6-39.5-22c-4.5-0.7-9-1.8-13.5-1.9c-8.7-0.3-10,1.2-10,10.9
		c2.7,1.8,5.6,4.3,9,5.9c13.2,6.3,26.6,12.4,40,18.6c3.1,1.5,6.1,3.2,9.2,4.8c-0.5,1.5-0.9,2.8-1.3,3.9
		c7.7,10.3,10.7,22.5,13.9,34.3c4.6,16.8,16.2,26.1,32.7,25.5c7-0.3,15.6-6.3,17.5-12.5c2.4-8.2,1.3-16.1-5.1-21.8
		c-4.5-4-10.5-6.6-15.9-9.6c-4.3-2.4-8.7-4.7-13-7"/>
	<path class="st0" d="M364,310.5c-6.2-1.3-12.3-2.7-18.5-4c-10-2-20-4.1-30-6c-11.8-2.2-23.7-4-35.5-6.1c-7.7-1.4-15.3-3-23-4.5
		c-8.5-1.6-17-3-25.5-4.5c-9.5-1.8-19-3.7-28.5-5.5c-5.3-1-10.7-2-16-3"/>
	<path class="st0" d="M162.5,402.5c-2.4-1.2-4.8-2.4-7.8-3.9c0,5.4,0,9.9,0,14.5c4.2,2.1,4.2,2.1,11.1-2.4c0.2,1.2,0.5,2.2,0.6,3.2
		c0.1,0.8,0,1.7,0,2.8c13.1,4,25.8,7.9,39.2,12c2.8-3.2,5.9-6.5,8.8-9.9c15.5-17.8,31-35.6,46.5-53.5c0.9-1,1.2-2.6,1.5-4
		c0.9-4.3,1.6-8.6,2.4-13.2c-2.3-0.3-3.8-0.5-5.3-0.8"/>
	<path class="st0" d="M627.5,372.5c1.3-0.8,3.7-1.5,3.8-2.5c0.5-3.6,0.2-7.3,0.2-10.8c-15.8-3-30.6-6-45.5-8.7
		c-13.8-2.5-27.7-4.7-41.5-7c-2-0.3-4-0.7-6-1"/>
	<path class="st0" d="M184.5,259.5c-0.7-0.2-1.9-0.6-1.9-0.5c-3.6,7.3-10.1,4.3-15,3.3c-15.4-3.4-29.9-1.6-44,4.7
		c-11.2,5-21.4,11.7-30,20.5"/>
	<path class="st0" d="M524,339.5c-11.8-2.3-23.6-4.8-35.5-7c-10.1-1.9-20.3-3.4-30.5-5c-5.8-1-11.7-2-17.5-3c-2-0.3-4-0.7-6-1"/>
	<path class="st0" d="M83.5,335.5c2.3,8.8,4.9,17.6,6.9,26.5c1.9,8.4,11.3,16,19.1,17.6c7.7,1.6,14.3,0.5,20.6-4.1
		c2.5-1.8,4.6-3.6,4.5-7"/>
	<path class="st0" d="M21.5,285.5c-0.2,0.7-0.5,1.4-0.8,2.2c2.8,3.3,6.9,3.5,11.3,3.9c13.5,1.4,27.4,2.6,38.5,11.9
		c3.8,3.2,6.8,7.2,10.2,10.9c-1.1,3.1-2.1,6.1-3.2,9"/>
	<path class="st0" d="M420.5,321c-6.8-1.5-13.6-3.1-20.5-4.5c-7.8-1.5-15.7-2.8-23.6-4.2c0.5-1.6,0.9-2.9,1.4-4.4
		c-2.8-1.3-4.7-2.8-8.4-1.7c-3.9,1.2-5.1,2.6-5,6.3c0.2,5.8,0,11.7,0.1,17.5c0,0.9,1.2,1.7,1.9,2.5"/>
	<path class="st0" d="M76.5,317.5c-16.7-7.7-33.4-15.2-50-23.1c-3.4-1.6-6.4-4.3-9.5-6.4"/>
	<path class="st0" d="M127.5,374.5c1.3-2.3,2.7-4.7,4-7c-1.2-8.1-7.4-12-13.5-16.1c-10-6.7-20-13.6-30.6-20.8
		c-0.2,0.1-1.3,0.5-2.4,0.9c-1.7-1.1-3.3-2.1-5.3-3.4c-0.8,1.2-1.5,2.3-2.2,3.4"/>
	<path class="st0" d="M632.5,358.5c-0.5-1.4-0.9-2.8-1.4-4.2c-0.4-0.1-0.8-0.1-1.2-0.2c7-11.7,13.9-23.4,20.9-35.1
		c0.4,0.1,0.8,0.3,1.2,0.4c0,2.8,0,5.7,0,8.6c-6.8,4.8-8.3,12.6-9.3,20.4c-0.3,2.7-1.6,6.1,1.3,8.5"/>
	<path class="st0" d="M86.5,332c2.7,9,5.8,17.9,7.9,27c1.5,6.3,4,11.5,9.1,15.5"/>
	<path class="st0" d="M184,406.5c-1.3,0.2-2.8,0.8-4,0.4c-4.2-1.2-8.3-2.7-12.5-4.1c0.7-1.1,1.6-2.3,2.8-4.1c-2.4,0-3.9,0-5.4,0
		c-0.5,3.4-1,6.6-1.5,9.8"/>
	<path class="st0" d="M634.5,368.5c1.7-4,3.5-7.9,4.9-12c0.8-2.2,1-4.6,0.5-7.1c-0.8,4.5-6.6,6.8-4.9,12.2"/>
	<path class="st0" d="M253,346c-2-0.8-4-1.8-6-2.5c-3.9-1.4-8.2-1.3-12.1-3.3c-3-1.5-6.9-3.6-10.6,0.6c-1.2,1.3-5.1,0.2-7.8,0.2
		c-0.1-0.4-0.2-0.8-0.2-1.3c1-1.2,2-2.3,4-4.6c0.2,2.6,0.3,4,0.4,5.3"/>
	<path class="st0" d="M441.5,336.5c-2.8-0.7-5.7-1.3-9.1-2.1c1-4.9-1.7-10.2,2.1-14.8c-2.9-3.1-8.6-4.1-11.5-2
		c-0.7,0.5-1.4,1.6-1.5,2.5c-0.2,7.7-2.5,15.4,0.1,22.6c2.8-0.7,5.3-1.4,7.8-2.1"/>
	<path class="st0" d="M95.5,281.5c-5.7,6.2-11.3,12.4-17.2,18.7c-3.2-2.6-7-5.7-10.8-8.7"/>
	<path class="st0" d="M533.5,340.5c-0.1,2.2-0.2,4.3-0.3,6.5c2.2-0.2,3.8-3.6,4.3-10.1c-4.3-2.1-8.4-2.2-13,0.7
		c-0.3,7.4-0.7,14.9-0.9,22.4c0,0.8,1.2,1.7,1.9,2.5"/>
	<path class="st0" d="M181.5,404.5c0.8,0,1.7,0,2.8,0c0,1.2,0,2.3,0,3.9c4.8-0.3,8.9,3.8,14.5,1c1,1,2.4,2.3,3.8,3.6"/>
	<path class="st0" d="M376,313c-0.2,4.5-0.2,9-0.6,13.5c-0.1,1.9-0.9,3.7-1.4,5.5"/>
	<path class="st0" d="M259.5,363.5c0.3-2.3,0.7-4.6,1-6.9c-0.5-0.1-1.1-0.2-1.6-0.3c-0.5,2.4-0.9,4.8-1.4,7.3"/>
	<path class="st0" d="M235.5,390.5c0.7-2.6,1.3-5.3,2-7.9c-0.4-0.1-0.8-0.1-1.3-0.2c-2.4,3.3-3.1,7-2.7,11.1"/>
	<path class="st0" d="M197.5,413.5c2.8,0,5.7,0,9.4,0c-0.5,4.4-1,8.2-1.4,12"/>
	<path class="st0" d="M243.5,377.5c-0.2-0.7-0.5-1.4-0.7-2.1c-0.5,0-0.9-0.1-1.4-0.1c-0.6,3.7-1.2,7.5-1.9,11.2"/>
	<path class="st0" d="M193.5,262c-1.3,2.3-2.5,4.6-3.7,6.8c-5.8-2.3-1.4-6.5-2.4-9.4c-1,0.3-1.7,0.4-2.3,0.6"/>
	<path class="st0" d="M211.5,417.5c0.3-2,0.6-4,0.9-6.4c-2.9,2.6-3.9,5.6-3.9,11.4"/>
	<path class="st0" d="M403.5,329.5c-1.8-0.2-3.7-0.4-5.5-0.5c-2-0.1-4,0-6,0"/>
	<path class="st0" d="M229.5,389.5c-2.3,3.4-2.1,7.2-2,11"/>
	<path class="st0" d="M163.5,394.5c-0.2-1-0.4-2-0.4-2c-2,1.5-4.3,3.3-6.6,5"/>
	<path class="st0" d="M85,327c-2.7-0.5-5.3-0.9-8.9-1.6c0.7,1,1,1.5,1.4,2.1"/>
	<path class="st0" d="M565.5,359.5c-0.8-0.3-1.7-0.9-2.5-1c-4.2-0.1-8.3,0-12.5,0"/>
	<path class="st0" d="M208.5,341.5c-3,3-6,6-9,9"/>
	<path class="st0" d="M169.5,396.5c-1.7,0-3.3,0-5.2,0c-1.5,1.3-3.1,2.6-4.8,4"/>
	<path class="st0" d="M201,260c-2.5-1.7-2.8,0.6-3.5,2c-0.8,1.8-1.4,3.7-2,5.5"/>
	<path class="st0" d="M172.5,379.5c-3,3.3-6,6.7-9,10"/>
	<path class="st0" d="M645.5,343.5c-0.6,3.3,1.7,7.3-2,10"/>
	<path class="st0" d="M247.5,369.5c-0.9,3-1.7,6-2.6,9c-0.6-0.1-1.2-0.3-1.9-0.5c-0.5,1.8-1,3.7-1.5,5.5"/>
	<path class="st0" d="M185.5,261c-1.5,4-1.5,4-4.8,5.1c0.7-1.3,1.2-2.5,1.8-3.6"/>
	<path class="st0" d="M54.5,311.5c3,1.3,6,2.7,9,4"/>
	<path class="st0" d="M434.5,325.5c0,2.8,0,5.7,0,8.5"/>
	<path class="st0" d="M223.5,404.5c0.4-2.4,0.8-4.9,1.2-7.3c-0.7-0.1-1.3-0.2-2-0.3c-0.4,2.9-0.8,5.7-1.1,8.6"/>
	<path class="st0" d="M521.5,361.5c-2.7-1-5.3-2-8-3"/>
	<path class="st0" d="M79.5,334.5c1,2.7,2,5.3,3,8"/>
	<path class="st0" d="M253.5,369.5c0.4-2.1,0.8-4.2,1.2-6.3c-0.6-0.1-1.3-0.2-1.9-0.3c-0.4,2.5-0.8,5.1-1.3,7.6"/>
	<path class="st0" d="M430.5,338.5c-2.3,0.3-4.7,0.7-7,1"/>
	<path class="st0" d="M485.5,300.5c0,2.3,0,4.7,0,7"/>
	<path class="st0" d="M491.5,300.5c0,2.3,0,4.7,0,7"/>
	<path class="st0" d="M430.5,328.5c-2.3,0.3-4.7,0.7-7,1"/>
	<path class="st0" d="M374,330c-4.9-0.7-6.4,0.3-6,4"/>
	<path class="st0" d="M535.5,348c-1.7,1.5-3.3,3-4.9,4.4c-1.1-0.6-2.1-1.3-3.1-1.9"/>
	<path class="st0" d="M231.5,390.5c-0.7,2.3-1.3,4.7-2,7"/>
	<path class="st0" d="M535.5,350c-0.2,2.3-0.3,4.7-0.5,7"/>
	<path class="st0" d="M215.5,410.5c0.4-2.2,0.9-4.4,1.3-6.6c0.6,0.1,1.2,0.2,1.9,0.3c-0.4,2.4-0.8,4.9-1.2,7.3"/>
	<path class="st0" d="M373.5,319.5c-1,0-2,0-3.5,0c0.9,1.7,1.4,2.9,2,4"/>
	<path class="st0" d="M267.5,305.5c3.6-0.4,7.3-0.7,10.9-1.1c0,0.7,0.1,1.4,0.1,2.1c-2,0-4,0-6,0"/>
	<path class="st0" d="M218,336c-0.4-0.8-0.7-1.6-1.1-2.4c-0.3,0.3-0.7,0.5-1,0.8c-1.5,1-2.9,2.1-4.4,3.1"/>
	<path class="st0" d="M74,310c1.7,2.2,3.3,4.3,5,6.5"/>
	<path class="st0" d="M457.5,339.5c-2,0-4,0-6,0"/>
	<path class="st0" d="M106.5,340.5c2,1.3,4,2.7,6,4"/>
	<path class="st0" d="M211.5,341.5c0.7-0.2,1.4-0.4,2.1-0.5c0-0.3,0-0.7,0-1c-1-0.2-2.1-0.3-3.1-0.5"/>
	<path class="st0" d="M373.5,317.5c-2,0.3-4,0.7-6,1"/>
	<path class="st0" d="M532.5,359.5c-2,0.3-4,0.7-6,1"/>
	<path class="st0" d="M167,404c-0.3,2-0.7,4-1,6"/>
	<path class="st0" d="M81,317.5c1.8,1.6,5.5-0.3,6,3.5"/>
	<path class="st0" d="M491.5,347.5c3.3-0.4,6.6-0.8,9.9-1.1c0,0.7,0.1,1.4,0.1,2.1c-1.7,0-3.3,0-5,0"/>
	<path class="st0" d="M175.5,379c0.3,0.5,0.7,1,1,1.5c0.3-0.3,0.7-0.7,1-1c-0.5-0.3-1-0.7-1.5-1"/>
	<path class="st0" d="M211.5,294.5c1.8,0.3,3.7,0.7,4.4,0.8c3.8-0.4,6.7-0.7,9.5-0.9c0,0.7,0.1,1.4,0.1,2.1c-1.7,0-3.3,0-5,0"/>
	<path class="st0" d="M474.5,344.5c1.8-0.3,3.7-0.9,5.5-0.9c1.8,0,3.7,0.6,5.5,0.9"/>
	<path class="st0" d="M79.5,304.5c1.3,1.3,2.7,2.7,4,4"/>
	<path class="st0" d="M576.5,364.5c3.8-0.8,7.5-1.7,10.6-2.4c1,1,1.4,1.3,1.3,1.3c-0.3,0.4-0.6,0.8-1.6,2.2c5-0.5,8.7-0.9,12.5-1.4
		c0,0.7,0.1,1.4,0.1,2.2c-1.7,0-3.3,0-5,0"/>
	<path class="st0" d="M236.5,299.5c3.1-0.4,6.3-0.8,8.9-1.1c0.8,0.8,1.1,1,1.1,1.1c-0.3,0.4-0.6,0.8-1.4,2c2.5,0,4,0,5.5,0"/>
	<path class="st0" d="M599,367c1.7,0,3.3-0.1,5,0c2.2,0.1,4.3,0.3,6.5,0.5"/>
	<path class="st0" d="M404.5,331.5c3.3-0.4,6.6-0.8,9.9-1.1c0,0.7,0.1,1.4,0.1,2.1c-1.7,0-3.3,0-5,0"/>
	<path class="st0" d="M351.5,321.5c3.1-0.4,6.3-0.8,9.4-1.2c-0.1,0.5-0.3,1-0.4,1.6c1,0.5,2,1.1,3,1.6"/>
	<path class="st0" d="M572.5,362.5c3.3,0,6.7,0,10,0"/>
	<path class="st0" d="M561.5,360.5c3.3,0,6.7,0,10,0"/>
	<path class="st0" d="M576.5,361.5c-3.9-2.4-7.4,0.1-11,1"/>
	<path class="st0" d="M248,371c-0.2,1.8-0.3,3.7-0.5,5.5"/>
	<path class="st0" d="M647.5,339.5c2.4-1.2,3.1-2.7,0.5-4.5"/>
	<path class="st0" d="M219.5,294.5c-1.7,0-3.3,0-5,0"/>
	<path class="st0" d="M447.5,339.5c4.7,0,9.3,0,14,0"/>
	<path class="st0" d="M225,297c1.7,0,3.3-0.1,5,0c1.8,0.1,3.7,0.3,5.5,0.5"/>
	<path class="st0" d="M626.5,370.5c-1.7,0-3.3,0-5,0"/>
	<path class="st0" d="M278,307c1.7,0,3.3-0.1,5,0c1.8,0.1,3.7,0.3,5.5,0.5"/>
	<path class="st0" d="M87,322c1.7,0.3,3.3,0.7,5,1"/>
	<path class="st0" d="M382,327c1.7,0,3.3,0.1,5,0c1.8-0.1,3.6-0.4,5.4-0.6c0.1,0.6,0.1,1.1,0.2,1.7c-1.4,0.1-2.7,0.3-4.1,0.4"/>
	<path class="st0" d="M415,331.5c1.7,0.3,3.3,0.7,5,1"/>
	<path class="st0" d="M501,349c1.7,0,3.3-0.1,5,0c1.8,0.1,3.7,0.3,5.5,0.5"/>
	<path class="st0" d="M325.5,316.5c3,0.3,6,0.7,9,1"/>
	<path class="st0" d="M341.5,319.5c3,0,6,0,9,0"/>
	<path class="st0" d="M346.5,320.5c3,0,6,0,9,0"/>
	<path class="st0" d="M383,325.5c1.5,0.3,3,0.7,4.5,1"/>
	<path class="st0" d="M436.5,337.5c3.3,0,6.7,0,10,0"/>
	<path class="st0" d="M432,335c-0.2,2.8-0.3,5.7-0.5,8.5"/>
	<path class="st0" d="M631.5,373.5c-0.2,1.5-0.3,3-0.5,4.5"/>
	<path class="st0" d="M469,341.5c1.5,0.3,3,0.7,4.5,1"/>
	<path class="st0" d="M458.5,341.5c3,0.3,6,0.7,9,1"/>
	<path class="st0" d="M226,295.5c1.5,0.3,3,0.7,4.5,1"/>
	<path class="st0" d="M480.5,345.5c3.3,0,6.7,0,10,0"/>
	<path class="st0" d="M230.5,299.5c3.3-1,6.4-3.4,10-1"/>
	<path class="st0" d="M247,299.5c1.3,0.2,2.7,0.3,4,0.5c0.2,0,0.3,0.3,0.5,0.5c-0.2,0.2-0.3,0.3-0.5,0.5"/>
	<path class="st0" d="M486.5,346.5c3,0,6,0,9,0"/>
	<path class="st0" d="M252,300.5c1.5,0.3,3,0.7,4.5,1"/>
	<path class="st0" d="M502,347.5c1.5,0.3,3,0.7,4.5,1"/>
	<path class="st0" d="M257.5,303.5c3,0,6,0,9,0"/>
	<path class="st0" d="M507.5,350.5c3,0,6,0,9,0"/>
	<path class="st0" d="M262.5,304.5c3,0,6,0,9,0"/>
	<path class="st0" d="M512.5,351.5c3-0.3,6-0.7,9-1"/>
	<path class="st0" d="M545,355.5c1.5,0.3,3,0.7,4.5,1"/>
	<path class="st0" d="M279,305.5c1.5,0.3,3,0.7,4.5,1"/>
	<path class="st0" d="M539,356c1.5,0.2,3,0.3,4.5,0.5"/>
	<path class="st0" d="M589,363.5c1.5,0.3,3,0.7,4.5,1"/>
	<path class="st0" d="M587,364.5c-1.5,0.3-3,0.7-4.5,1"/>
	<path class="st0" d="M600,365.5c1.5,0.3,3,0.7,4.5,1"/>
	<path class="st0" d="M289.5,309.5c3,0.3,6,0.7,9,1"/>
	<path class="st0" d="M605.5,368.5c3.3-0.3,6.7-0.7,10-1"/>
	<path class="st0" d="M310,311.5c1.3,0.2,2.7,0.3,4,0.5c0.2,0,0.5,0.3,0.5,0.5c0,0.2-0.3,0.3-0.5,0.5"/>
	<path class="st0" d="M630,371c-2,0.1-4,0.2-5.9,0.3c-4.2-0.6-8.4-1.2-12.6-1.8"/>
	<path class="st0" d="M315,312.5c1.5,0.3,3,0.7,4.5,1"/>
	<path class="st0" d="M399.5,330.5c3,0,6,0,9,0"/>
	<path class="st0" d="M336,316.5c1.5,0.3,3,0.7,4.5,1"/>
	<path class="st0" d="M558.5,357.5c-1.3,0.3-2.7,0.7-4,1"/>
	<path class="st0" d="M526.5,347.5c2.2,0.7,4.3,1.3,6.5,2"/>
	<path class="st0" d="M414,333c1.3,0,2.7,0,4,0"/>
	<path class="st0" d="M620.5,368.5c-1.3,0.3-2.7,0.7-4,1"/>
	<path class="st0" d="M191.5,269.5c-0.7,1-1.3,2-2,3"/>
	<path class="st0" d="M521.5,352.5c-1.3,0-2.7,0-4,0"/>
	<path class="st0" d="M373.5,327.5c-2,0.3-4,0.7-6,1"/>
	<path class="st0" d="M360,322.5c-1.2,0-2.3,0-3.5,0"/>
	<path class="st0" d="M245,300.5c-1.2,0-2.3,0-3.5,0"/>
	<path class="st0" d="M328.5,314.5c-2.7,0.3-5.3,0.7-8,1"/>
	<path class="st0" d="M532,346.5c-1.2,0.3-2.3,0.7-3.5,1"/>
	<path class="st0" d="M284.5,308.5c2.7-0.3,5.3-0.7,8-1"/>
	<path class="st0" d="M393,327.5c1.2,0,2.3,0,3.5,0"/>
	<path class="st0" d="M362.5,330.5c-0.7,0.7-1.3,1.3-2,2"/>
	<path class="st0" d="M450.5,337.5c-2.7,0.3-5.3,0.7-8,1"/>
	<path class="st0" d="M431.5,319.5c-0.3,1-0.7,2-1,3"/>
	<path class="st0" d="M426.5,332.5c1,1.3,2,2.7,3,4"/>
	<path class="st0" d="M186,267c-0.5,0.8-1,1.7-1.5,2.5"/>
	<path class="st0" d="M99.5,278.5c-0.7,0.7-1.3,1.3-2,2"/>
	<path class="st0" d="M133.5,360.5c-0.3,0.7-0.7,1.3-1,2"/>
	<path class="st0" d="M117,343c9.2,4.7,18.4,9.3,27.5,14c9.9,5.1,19.7,10.4,29.5,15.4c1.5,0.8,3.2,0.9,5.2,0.4
		c-32.8-17.8-65.1-36-100.4-49.4c0.9-1.1,1.4-1.5,1.6-2c0.2-0.4,0.3-1,0.4-1.5c2.2,0.4,4.2,0.7,6.2,1"/>
	<path class="st0" d="M85.5,334.5c-0.2,0.5-0.3,1-0.5,1.5"/>
	<path class="st0" d="M534,364c0.2,0.5,0.3,1,0.5,1.5"/>
	<path class="st0" d="M104,338c0,0.3-0.1,0.7,0,1c0.1,0.2,0.3,0.3,0.5,0.5"/>
	<path class="st0" d="M221.5,407.5c0.2,0.5,0.3,1,0.5,1.5"/>
	<path class="st0" d="M88,340c-0.2,0.3-0.4,0.7-0.5,1c-0.1,0.1,0,0.3,0,0.5"/>
	<path class="st0" d="M82.5,315.5c0.2,0.5,0.3,1,0.5,1.5"/>
	<path class="st0" d="M537.5,354.5c2.2,0.2,4.3,0.3,6.5,0.5c0.2,0,0.3,0.3,0.5,0.5c-0.2,0.2-0.3,0.3-0.5,0.5"/>
	<path class="st0" d="M488,301.5c-0.6,1.4-1.3,2.8-1.9,4.2c0.4,0.3,0.8,0.6,1.1,1c1.1-0.4,3.1-0.7,3.1-1.2c0-1.5,1.3-3.9-1.8-4"/>
	<path class="st0" d="M254.5,346.5c-0.4,0.3-0.8,0.5-2.2,1.5c2.5,0.3,3.8,0.4,5.1,0.5c0.1-0.3,0.2-0.7,0.3-1
		c-0.9-0.4-1.8-0.7-2.7-1.1"/>
</g>
</svg>
