<?xml version="1.0" encoding="utf-8"?>
<!-- Generator: Adobe Illustrator 21.0.0, SVG Export Plug-In . SVG Version: 6.00 Build 0)  -->
<svg version="1.1" id="Layer_1" xmlns="http://www.w3.org/2000/svg" xmlns:xlink="http://www.w3.org/1999/xlink" x="0px" y="0px"
	 viewBox="0 0 754.7 1417.3" style="enable-background:new 0 0 754.7 1417.3;" xml:space="preserve">
<g>
	<path d="M384.9,1403H369c-192.4,0-348.9-156.5-348.9-348.9V363C20.1,170.6,176.6,14,369,14h15.9C577.3,14,733.8,170.6,733.8,363
		v691.1C733.8,1246.5,577.3,1403,384.9,1403z M369,30.5C185.7,30.5,36.6,179.7,36.6,363v691.1c0,183.3,149.1,332.4,332.4,332.4h15.9
		c183.3,0,332.4-149.1,332.4-332.4V363c0-183.3-149.1-332.4-332.4-332.4H369z"/>
</g>
<g>
	<path d="M376.9,769.4c-149.9,0-271.9,122-271.9,271.9c0,149.9,122,271.9,271.9,271.9c149.9,0,271.9-122,271.9-271.9
		C648.8,891.3,526.8,769.4,376.9,769.4z M604.5,925.5c12.2,23.9,20.7,49.9,24.9,77.3h-24.9V925.5z M153.9,917v85.8h-29.4
		C129.1,972.1,139.3,943.2,153.9,917z M153.9,1165.4c-14.6-26.2-24.8-55.2-29.4-85.9h29.4V1165.4z M376.9,1296.6
		c-91.2,0-171.3-48-216.5-120.1V1073h-36.9c-1.3-10.4-2-21-2-31.7c0-10.8,0.7-21.4,2-31.9h36.8V906
		c45.2-72.1,125.3-120.1,216.5-120.1c94.3,0,176.9,51.4,221.1,127.7v95.8h32.3c1.3,10.4,2,21.1,2,31.9c0,10.7-0.7,21.3-2,31.7H598
		v95.9C553.8,1245.2,471.2,1296.6,376.9,1296.6z M604.5,1156.9v-77.4h24.9C625.3,1107,616.7,1133,604.5,1156.9z"/>
	<path d="M254,1010.5c-19.7,0-35.8,16.1-35.8,35.8c0,19.7,16.1,35.8,35.8,35.8s35.8-16.1,35.8-35.8
		C289.8,1026.6,273.7,1010.5,254,1010.5z"/>
	<path d="M498.2,1010.5c-19.7,0-35.8,16.1-35.8,35.8c0,19.7,16.1,35.8,35.8,35.8s35.8-16.1,35.8-35.8
		C534,1026.6,518,1010.5,498.2,1010.5z"/>
</g>
</svg>
