<?xml version="1.0" encoding="utf-8"?>
<!-- Generator: Adobe Illustrator 19.0.0, SVG Export Plug-In . SVG Version: 6.00 Build 0)  -->
<svg version="1.1" id="Layer_1" xmlns="http://www.w3.org/2000/svg" xmlns:xlink="http://www.w3.org/1999/xlink" x="0px" y="0px"
	 viewBox="-236.5 374.6 39.6 39.6" style="enable-background:new -236.5 374.6 39.6 39.6;" xml:space="preserve">
<path d="M-216.7,414.2c10.9,0,19.8-8.9,19.8-19.8c0-10.9-8.9-19.8-19.8-19.8c-10.9,0-19.8,8.9-19.8,19.8
	C-236.5,405.3-227.6,414.2-216.7,414.2z M-219.3,377.4v3c0,1.4,1.2,2.6,2.6,2.6c1.4,0,2.6-1.2,2.6-2.6v-3c8.3,1.3,14.6,8.4,14.6,17
	c0,8.6-6.4,15.7-14.6,17v-3c0-1.4-1.2-2.6-2.6-2.6c-1.4,0-2.6,1.2-2.6,2.6v3c-8.3-1.3-14.6-8.4-14.6-17
	C-233.9,385.8-227.6,378.6-219.3,377.4z M-226.9,394.4c0-1.4,1.2-2.6,2.6-2.6c1.4,0,2.6,1.2,2.6,2.6s-1.2,2.6-2.6,2.6
	C-225.8,397-226.9,395.8-226.9,394.4z M-211.7,394.4c0-1.4,1.2-2.6,2.6-2.6c1.4,0,2.6,1.2,2.6,2.6s-1.2,2.6-2.6,2.6
	C-210.5,397-211.7,395.8-211.7,394.4z"/>
</svg>
